<svg id="Capa_1" data-name="Capa 1" xmlns="http://www.w3.org/2000/svg" width="60" height="60" viewBox="0 0 60 60">
  <title>ico_instagram</title>
  <circle cx="30" cy="30" r="30" fill="#945fe0"/>
  <g>
    <path d="M36.5,15.4h-13a8.1,8.1,0,0,0-8.1,8.1V36.6a8,8,0,0,0,8.1,8h13a8,8,0,0,0,8.1-8V23.5A8.1,8.1,0,0,0,36.5,15.4ZM42,36.6A5.4,5.4,0,0,1,36.5,42h-13A5.4,5.4,0,0,1,18,36.6V23.5A5.5,5.5,0,0,1,23.5,18h13A5.5,5.5,0,0,1,42,23.5V36.6Z" fill="#fff"/>
    <path d="M30,22.5A7.6,7.6,0,1,0,37.5,30,7.5,7.5,0,0,0,30,22.5ZM30,35a5,5,0,0,1-4.9-5,4.9,4.9,0,0,1,9.8,0A5,5,0,0,1,30,35Z" fill="#fff"/>
    <path d="M37.8,20.3a1.8,1.8,0,0,0-1.3.6,1.7,1.7,0,0,0,0,2.6,1.8,1.8,0,0,0,1.3.6,2,2,0,0,0,1.4-.6,1.9,1.9,0,0,0,0-2.6A2,2,0,0,0,37.8,20.3Z" fill="#fff"/>
  </g>
</svg>
