<svg id="Layer_1" data-name="Layer 1" xmlns="http://www.w3.org/2000/svg" viewBox="0 0 29.7 26"><defs><style>.cls-1{fill:#ff8a8a;}</style></defs><title>heart</title><path class="cls-1" d="M26.6,1.9a8.9,8.9,0,0,0-11.7.8C11.6-.5,6.5-1,3.1,1.9a8.8,8.8,0,0,0-1,12.4l.4.4L12.7,25.1a3.1,3.1,0,0,0,2.2.9,2.7,2.7,0,0,0,2.1-.9L27.2,14.7a8.6,8.6,0,0,0-.1-12.3ZM25.2,12.8,15.1,23.1c-.2.2-.3.2-.4,0L4.5,12.8a6,6,0,0,1,.1-8.5L4.9,4a5.9,5.9,0,0,1,7.9.6l2.1,2.1,2-2.1A5.9,5.9,0,0,1,24.8,4a6,6,0,0,1,.7,8.5Z" transform="translate(0 0)"/></svg>