<svg id="Capa_1" data-name="Capa 1" xmlns="http://www.w3.org/2000/svg" width="60" height="60" viewBox="0 0 60 60">
  <title>linkedin</title>
  <circle cx="30" cy="30" r="30" fill="#945fe0"/>
  <path d="M22.3,19.1a3.3,3.3,0,0,1-3.6,3.3h0a3.2,3.2,0,0,1-3.5-3.3,3.3,3.3,0,0,1,3.6-3.3A3.3,3.3,0,0,1,22.3,19.1ZM15.5,44.2h6.4V25.1H15.5Zm22-19.6a6.2,6.2,0,0,0-5.7,3.2h0V25.1H25.4c.1,1.8,0,19.1,0,19.1h6.4V33.5A3.4,3.4,0,0,1,32,32a3.5,3.5,0,0,1,3.3-2.4c2.3,0,3.2,1.8,3.2,4.4V44.2h6.3v-11C44.8,27.4,41.7,24.6,37.5,24.6Z" fill="#fff"/>
</svg>
