<?xml version="1.0" encoding="utf-8"?>
<!-- Generator: Adobe Illustrator 24.0.1, SVG Export Plug-In . SVG Version: 6.00 Build 0)  -->
<svg version="1.1" id="Layer_1" xmlns="http://www.w3.org/2000/svg" xmlns:xlink="http://www.w3.org/1999/xlink" x="0px" y="0px"
	 viewBox="0 0 24 24" style="enable-background:new 0 0 24 24;" xml:space="preserve">
<style type="text/css">
	.st0{fill:#0B304C;}
</style>
<path class="st0" d="M10.3,2.1C17.1,1,23,6.9,21.9,13.7c-0.7,4.1-4,7.5-8.2,8.2C6.9,23,1,17.1,2.1,10.3C2.8,6.2,6.2,2.8,10.3,2.1z
	 M13.6,0.1C5.7-0.9-0.9,5.7,0.1,13.6c0.7,5.3,5,9.7,10.3,10.3c7.8,1,14.5-5.6,13.5-13.5C23.2,5.1,18.9,0.8,13.6,0.1z M13,12V7
	c0-0.6-0.4-1-1-1h0c-0.6,0-1,0.4-1,1v6c0,0.6,0.4,1,1,1h5c0.6,0,1-0.4,1-1v0c0-0.6-0.4-1-1-1H13z"/>
</svg>
