<?xml version="1.0" encoding="utf-8"?>
<!-- Generator: Adobe Illustrator 24.0.1, SVG Export Plug-In . SVG Version: 6.00 Build 0)  -->
<svg version="1.1" id="Layer_1" xmlns="http://www.w3.org/2000/svg" xmlns:xlink="http://www.w3.org/1999/xlink" x="0px" y="0px"
	 viewBox="0 0 384 512" style="enable-background:new 0 0 384 512;" xml:space="preserve">
<style type="text/css">
	.st0{fill:#0B304C;}
</style>
<g>
	<path class="st0" d="M192,298.3c56,0,101.5-45.5,101.5-101.5S248,95.2,192,95.2S90.5,140.7,90.5,196.7
		C90.5,252.7,136,298.3,192,298.3z M192,127c38.4,0,69.7,31.3,69.7,69.7s-31.3,69.7-69.7,69.7s-69.7-31.3-69.7-69.7
		S153.6,127,192,127z"/>
	<path class="st0" d="M192,14.7c-100.4,0-182,81.6-182,182c0,60.2,16.9,84.2,98.1,200c17.9,25.5,38.1,54.3,62.1,89.1
		c5,7.2,13,11.4,21.8,11.4c8.7,0,16.9-4.2,21.8-11.4c24.1-34.9,44.3-63.7,62.1-89.1C357.2,281.1,374,257,374,196.7
		C374,96.4,292.4,14.7,192,14.7z M192,46.5c40,0,77.8,15.7,106.2,44c28.3,28.4,44,66.2,44,106.2c0,26.4-3.9,42.9-15.5,65.3
		c-13.7,26.5-38.9,62.4-77.1,116.7l-3.6,5c-15.7,22.6-33.5,48-54.1,77.8c-16.6-24-31.5-45.3-44.8-64.2c-4.5-6.4-8.8-12.6-13-18.6
		c-39.7-56.4-63.6-90.5-77.1-116.7c-11.5-22.4-15.5-38.9-15.5-65.3c0-40,15.7-77.8,44-106.2C114.2,62.1,152,46.5,192,46.5z"/>
</g>
</svg>
