<svg id="Capa_1" data-name="Capa 1" xmlns="http://www.w3.org/2000/svg" width="60" height="60" viewBox="0 0 60 60">
  <title>ico_twitter</title>
  <circle cx="30" cy="30" r="30" fill="#945fe0"/>
  <path d="M46.7,19.7a14,14,0,0,1-4,1.1,6.6,6.6,0,0,0,3-3.8,13.1,13.1,0,0,1-4.3,1.6,6.6,6.6,0,0,0-5-2.1,6.2,6.2,0,0,0-4.8,2,6.2,6.2,0,0,0-2,4.8,9.2,9.2,0,0,0,.1,1.6,21,21,0,0,1-7.8-2.1,19.3,19.3,0,0,1-6.2-5.1,6.2,6.2,0,0,0-1,3.5,7.2,7.2,0,0,0,.8,3.2,7.8,7.8,0,0,0,2.3,2.5,8,8,0,0,1-3.1-.9h0a6.6,6.6,0,0,0,1.5,4.3,6.7,6.7,0,0,0,4,2.4,5.5,5.5,0,0,1-1.8.2H17.1a6.3,6.3,0,0,0,2.4,3.4,7.2,7.2,0,0,0,4,1.4A13.9,13.9,0,0,1,15,40.6H13.3a19.5,19.5,0,0,0,10.5,3.1,20,20,0,0,0,6.9-1.2,17.8,17.8,0,0,0,5.4-3.1A23.2,23.2,0,0,0,40,34.9a23.2,23.2,0,0,0,2.5-5.3,20.3,20.3,0,0,0,.8-5.5,2.2,2.2,0,0,0-.1-.9A13,13,0,0,0,46.7,19.7Z" fill="#fff"/>
</svg>
