<?xml version="1.0" encoding="utf-8"?>
<!-- Generator: Adobe Illustrator 24.0.1, SVG Export Plug-In . SVG Version: 6.00 Build 0)  -->
<svg version="1.1" id="Layer_1" xmlns="http://www.w3.org/2000/svg" xmlns:xlink="http://www.w3.org/1999/xlink" x="0px" y="0px"
	 viewBox="0 0 47 47" style="enable-background:new 0 0 47 47;" xml:space="preserve">
<style type="text/css">
	.st0{fill:#ffffff;}
</style>
<path class="st0" d="M34.7,9.9c1.8,0,3.3-1.4,3.3-3.3V3.3C38,1.5,36.5,0,34.7,0s-3.3,1.5-3.3,3.3v3.4C31.4,8.5,32.9,9.9,34.7,9.9z"
	/>
<path class="st0" d="M46.3,5.6h-6.6v1.7c0,2.7-2.2,5-5,5c-2.7,0-5-2.2-5-5V5.6H16.5v1.7c0,2.7-2.2,5-5,5c-2.7,0-5-2.2-5-5V5.6L0,5.6
	V47h3.3H43l3.3,0L46.3,5.6z M43,43.7H3.3V17.2H43L43,43.7L43,43.7z"/>
<path class="st0" d="M11.5,9.9c1.8,0,3.3-1.4,3.3-3.3V3.3c0-1.8-1.5-3.3-3.3-3.3C9.7,0,8.3,1.5,8.3,3.3v3.4
	C8.3,8.5,9.7,9.9,11.5,9.9z"/>
<path class="st0" d="M21.8,20.8h-5.2v4.6h5.2V20.8z"/>
<path class="st0" d="M30.2,20.8H25v4.6h5.2V20.8z"/>
<path class="st0" d="M38,20.8h-5.2v4.6H38V20.8z"/>
<path class="st0" d="M21.8,28.4h-5.2V33h5.2V28.4z"/>
<path class="st0" d="M30.2,28.4H25V33h5.2V28.4z"/>
<path class="st0" d="M38,28.4h-5.2V33H38V28.4z"/>
<path class="st0" d="M21.8,36.2h-5.2v4.6h5.2V36.2z"/>
<path class="st0" d="M13.5,28.4H8.3V33h5.2V28.4z"/>
<path class="st0" d="M13.5,36.2H8.3v4.6h5.2V36.2z"/>
<path class="st0" d="M30.2,36.2H25v4.6h5.2V36.2z"/>
<path class="st0" d="M38,36.2h-5.2v4.6H38V36.2z"/>
</svg>
