<?xml version="1.0" encoding="utf-8"?>
<!-- Generator: Adobe Illustrator 24.0.1, SVG Export Plug-In . SVG Version: 6.00 Build 0)  -->
<svg version="1.1" id="Layer_1" xmlns="http://www.w3.org/2000/svg" xmlns:xlink="http://www.w3.org/1999/xlink" x="0px" y="0px"
	 viewBox="0 0 130 130" style="enable-background:new 0 0 130 130;" xml:space="preserve">
<style type="text/css">
	.st0{fill:#C4C4C4;}
</style>
<g>
	<g>
		<g>
			<path class="st0" d="M114.7,75.5c-4.4-2.2-12.7-2.2-13.1-2.2c-1.1,0-1.9,0.9-1.9,1.9s0.9,1.9,1.9,1.9c2.1,0,8.4,0.3,11.4,1.8
				c0.3,0.1,0.6,0.2,0.9,0.2c0.7,0,1.4-0.4,1.7-1.1C116,77.1,115.6,76,114.7,75.5z"/>
		</g>
	</g>
	<g>
		<g>
			<path class="st0" d="M124.2,102.6l-7.9-2.2c-0.3-0.1-0.6-0.4-0.6-0.8V97c0.6-0.4,1.3-0.9,1.8-1.5c2.8-2.7,4.3-6.3,4.3-10.1v-3.6
				l0.8-1.5c0.8-1.7,1.3-3.5,1.3-5.4V65c0-1.1-0.9-1.9-1.9-1.9h-18.3c-6.7,0-12.1,5.4-12.1,12.1v0.1c0,1.6,0.4,3.1,1.1,4.5l1,2v3.1
				c0,4.9,2.4,9.4,6.1,12l0,2.8c0,0.4,0,0.6-1.6,1l-3.8,1.1l-11.1-4c0-0.5-0.1-1.1-0.5-1.5l-3.5-3.7v-6.3c0.4-0.3,0.7-0.6,1.1-1
				c4.5-4.2,7-10.1,7-16.2v-5c1.4-2.9,2-6.1,2-9.3V34.5c0-1.1-0.9-1.9-1.9-1.9H58.9c-10,0-18.2,8.2-18.2,18.2v4.1
				c0,3.2,0.7,6.3,2,9.3v4.3c0,7.1,3.2,13.5,8.1,17.8v6.4l-3.5,3.7c-0.4,0.4-0.6,0.9-0.5,1.5L35.1,102c-0.8,0.3-1.6,0.7-2.4,1.2
				l-1.8-0.9c5.5-2.4,7.2-5.7,7.3-5.9c0.3-0.5,0.3-1.2,0-1.7c-1.4-2.7-1.5-7.8-1.7-11.8c0-1.3-0.1-2.6-0.2-3.8
				c-0.6-9.1-7.6-16-16.2-16S4.7,70,4.1,79.1C4,80.2,4,81.5,3.9,82.9c-0.1,4-0.3,9.1-1.7,11.8c-0.3,0.5-0.3,1.2,0,1.7
				c0.1,0.2,1.8,3.5,7.3,5.9l-5.1,2.6C1.7,106.2,0,109,0,112v14.1c0,1.1,0.9,1.9,1.9,1.9s1.9-0.9,1.9-1.9V112c0-1.6,0.9-3,2.3-3.8
				l6.4-3.2l2.2,2.1c1.5,1.5,3.5,2.2,5.5,2.2c2,0,4-0.7,5.5-2.2l2.2-2.1l2.1,1c-1,1.6-1.5,3.4-1.5,5.3v14.7c0,1.1,0.9,1.9,1.9,1.9
				s1.9-0.9,1.9-1.9v-14.7c0-2.6,1.7-5,4.1-5.9l12.4-4.5l5.1,7.7c0.7,1,1.7,1.6,2.9,1.7c0.1,0,0.3,0,0.4,0c1,0,2-0.4,2.8-1.2
				l3.1-3.1v19.8c0,1.1,0.9,1.9,1.9,1.9c1.1,0,1.9-0.9,1.9-1.9v-19.8l3.1,3.1c0.7,0.7,1.7,1.2,2.8,1.2c0.1,0,0.3,0,0.4,0
				c1.2-0.1,2.2-0.7,2.9-1.7l5.1-7.7l12.4,4.5c2.5,0.9,4.1,3.3,4.1,5.9v14.7c0,1.1,0.9,1.9,1.9,1.9s1.9-0.9,1.9-1.9v-14.7
				c0-2.6-1.1-5.1-2.8-7l0.5-0.1c0.5-0.1,1.1-0.3,1.8-0.6l4.9,4.9v17.5c0,1.1,0.9,1.9,1.9,1.9c1.1,0,1.9-0.9,1.9-1.9v-17.5l4.8-4.8
				c0.3,0.1,0.5,0.2,0.8,0.3l7.9,2.2c1.8,0.5,3,2.2,3,4v15.8c0,1.1,0.9,1.9,1.9,1.9s1.9-0.9,1.9-1.9v-15.8
				C130,106.8,127.6,103.6,124.2,102.6z M12.2,99.3c-3.6-1.3-5.3-3-6.1-3.9C6.6,94,7,92.4,7.2,90.8c1.1,2.5,2.8,4.7,5,6.2V99.3z
				 M23.1,104.4c-1.6,1.5-4.2,1.5-5.8,0l-1.8-1.7c0.3-0.6,0.5-1.2,0.5-1.9v-2c1.3,0.4,2.7,0.6,4.2,0.6c1.5,0,2.9-0.2,4.2-0.6l0,2
				c0,0.7,0.2,1.3,0.5,1.9L23.1,104.4z M20.2,95.7c-5.7,0-10.3-4.6-10.3-10.3c0-1.1-0.9-1.9-1.9-1.9c-0.1,0-0.2,0-0.3,0
				c0-0.2,0-0.3,0-0.5c0-1.3,0.1-2.5,0.2-3.6c0.2-3.4,1.6-6.6,3.8-8.9c2.3-2.3,5.3-3.6,8.5-3.6s6.2,1.3,8.5,3.6
				c2.2,2.3,3.6,5.5,3.8,8.9c0.1,1.1,0.1,2.3,0.2,3.6c0,0.1,0,0.2,0,0.3c-2.1-3.2-5.3-5.5-9.4-6.9c-3.8-1.2-7.1-1.2-7.2-1.1
				c-0.5,0-1,0.2-1.3,0.6l-3.4,3.6c-0.7,0.8-0.7,2,0,2.7c0.8,0.7,2,0.7,2.7,0l2.9-3c2.5,0.1,10.4,1,13.5,7.8
				C29.6,92,25.3,95.7,20.2,95.7z M28.2,99.3l0-2.3c2.2-1.5,4-3.7,5-6.2c0.2,1.6,0.6,3.2,1.1,4.5C33.6,96.3,31.8,98,28.2,99.3z
				 M46.6,68.4v-4.7c0-0.3-0.1-0.6-0.2-0.8c-1.2-2.5-1.8-5.2-1.8-8v-4.1c0-7.9,6.5-14.4,14.4-14.4h26.6v18.5c0,2.8-0.6,5.5-1.8,8
				c-0.1,0.3-0.2,0.5-0.2,0.8v5.4c0,5.2-2.1,9.9-5.8,13.5c-0.5,0.4-1,0.9-1.5,1.2c0,0,0,0,0,0c-3.5,2.7-7.8,4-12.4,3.7
				C54.1,86.9,46.6,78.5,46.6,68.4z M57.3,106.7c0,0,0,0-0.1,0c-0.1,0-0.1,0-0.1-0.1l-5.9-8.9l1.9-2l9,6.1L57.3,106.7z M65,99.3
				l-10.3-7v-3.6c2.7,1.4,5.7,2.3,8.8,2.6c0.5,0,1,0,1.5,0c3.6,0,7.1-0.9,10.3-2.5v3.5L65,99.3z M73,106.7
				C73,106.7,72.9,106.7,73,106.7c-0.2,0.1-0.2,0-0.2,0l-4.8-4.8l9-6.1l1.9,2L73,106.7z M107.7,105.1l-4.3-4.3
				c0.1-0.3,0.1-0.7,0.1-1.1l0-0.8c1.2,0.4,2.5,0.6,3.8,0.7c0.1,0,0.3,0,0.4,0c1.4,0,2.9-0.2,4.2-0.6v0.8c0,0.4,0,0.8,0.1,1.1
				L107.7,105.1z M114.9,92.8c-2,2-4.7,3-7.5,2.9c-5.5-0.2-10-5-10-10.8v-3.6c0-0.3-0.1-0.6-0.2-0.9L96,78.1
				c-0.4-0.9-0.7-1.8-0.7-2.8v-0.1c0-4.6,3.7-8.3,8.3-8.3h16.4v7.9c0,1.3-0.3,2.6-0.9,3.7l-1,1.9c-0.1,0.3-0.2,0.6-0.2,0.9v4.1
				C118,88.2,116.9,90.8,114.9,92.8z"/>
		</g>
	</g>
	<g>
		<g>
			<path class="st0" d="M120,112c-1.1,0-1.9,0.9-1.9,1.9v12.2c0,1.1,0.9,1.9,1.9,1.9c1.1,0,1.9-0.9,1.9-1.9v-12.2
				C121.9,112.8,121,112,120,112z"/>
		</g>
	</g>
	<g>
		<g>
			<path class="st0" d="M10,114.5c-1.1,0-1.9,0.9-1.9,1.9v9.7c0,1.1,0.9,1.9,1.9,1.9c1.1,0,1.9-0.9,1.9-1.9v-9.7
				C12,115.3,11.1,114.5,10,114.5z"/>
		</g>
	</g>
	<g>
		<g>
			<path class="st0" d="M80.6,55.5c-7.2-7.2-22.3-5.8-28.4-4.9c-1.9,0.3-3.3,1.9-3.3,3.9v4.4c0,1.1,0.9,1.9,1.9,1.9s1.9-0.9,1.9-1.9
				v-4.4c0-0.1,0-0.1,0.1-0.1c2.5-0.4,7.3-0.9,12.4-0.6c5.9,0.4,10.2,1.9,12.8,4.4c0.7,0.7,1.9,0.7,2.7,0
				C81.4,57.5,81.4,56.3,80.6,55.5z"/>
		</g>
	</g>
	<g>
		<g>
			<path class="st0" d="M42.6,116c-1.1,0-1.9,0.9-1.9,1.9v8.1c0,1.1,0.9,1.9,1.9,1.9c1.1,0,1.9-0.9,1.9-1.9v-8.1
				C44.5,116.9,43.7,116,42.6,116z"/>
		</g>
	</g>
	<g>
		<g>
			<path class="st0" d="M87.4,116c-1.1,0-1.9,0.9-1.9,1.9v8.1c0,1.1,0.9,1.9,1.9,1.9c1.1,0,1.9-0.9,1.9-1.9v-8.1
				C89.3,116.9,88.5,116,87.4,116z"/>
		</g>
	</g>
</g>
</svg>
