<?xml version="1.0" encoding="utf-8"?>
<!-- Generator: Adobe Illustrator 24.0.1, SVG Export Plug-In . SVG Version: 6.00 Build 0)  -->
<svg version="1.1" id="Capa_1" xmlns="http://www.w3.org/2000/svg" xmlns:xlink="http://www.w3.org/1999/xlink" x="0px" y="0px"
	 viewBox="0 0 130 130" style="enable-background:new 0 0 130 130;" xml:space="preserve">
<style type="text/css">
	.st0{fill:#C4C4C4;}
</style>
<g>
	<path class="st0" d="M28.3,103.5h-3.1h-2.6h-3.1c-7.2,0-13,5.8-13,13v11.6c0,1.1,0.9,1.9,1.9,1.9s1.9-0.9,1.9-1.9v-11.6
		c0-5.1,4.1-9.2,9.2-9.2H20l-2.9,10c-0.2,0.7,0,1.4,0.5,1.9l5,5.1c0.4,0.4,0.8,0.6,1.4,0.6s1-0.2,1.4-0.6l5-5.1
		c0.5-0.5,0.7-1.2,0.5-1.9l-2.9-10h0.6c5.1,0,9.2,4.1,9.2,9.2v11.6c0,1.1,0.9,1.9,1.9,1.9s1.9-0.9,1.9-1.9v-11.6
		C41.3,109.4,35.5,103.5,28.3,103.5z M23.9,120.2l-2.8-2.9l2.8-9.6l2.8,9.6L23.9,120.2z"/>
	<path class="st0" d="M23.9,102.5c8,0,14.5-6.5,14.5-14.5v-3.7v-2.4c0-0.3,0-0.5,0-0.8c0-0.1,0-0.1,0-0.2c0-0.2,0-0.4,0-0.6
		c0-0.1,0-0.1,0-0.2c0-0.2,0-0.4-0.1-0.6c0-0.1,0-0.1,0-0.2c0-0.2-0.1-0.4-0.1-0.6c0-0.1,0-0.1,0-0.2c0-0.2-0.1-0.4-0.1-0.5
		c0-0.1,0-0.1-0.1-0.2c0-0.2-0.1-0.3-0.2-0.5c0-0.1,0-0.1-0.1-0.2c-0.1-0.2-0.1-0.3-0.2-0.5c0-0.1-0.1-0.2-0.1-0.2
		c-0.1-0.1-0.1-0.3-0.2-0.4c0-0.1-0.1-0.2-0.1-0.3c-0.1-0.1-0.1-0.2-0.2-0.4c-0.1-0.1-0.1-0.2-0.2-0.3c-0.1-0.1-0.1-0.2-0.2-0.3
		c-0.1-0.1-0.1-0.2-0.2-0.4c0-0.1-0.1-0.1-0.1-0.2c-0.4-0.7-0.9-1.4-1.5-2c0,0-0.1-0.1-0.1-0.1c-0.1-0.1-0.2-0.3-0.4-0.4
		c-0.1-0.1-0.1-0.1-0.2-0.2c-0.1-0.1-0.2-0.2-0.3-0.3c-0.1-0.1-0.1-0.1-0.2-0.2c-0.1,0-0.1-0.1-0.2-0.1c0,0,0,0-0.1-0.1
		c-0.1-0.1-0.1-0.1-0.2-0.2c0,0,0,0,0,0c-0.2-0.1-0.3-0.3-0.5-0.4c0,0-0.1-0.1-0.1-0.1c-0.1-0.1-0.3-0.2-0.4-0.3
		c-0.1,0-0.1-0.1-0.2-0.1c-0.1-0.1-0.2-0.2-0.4-0.2c-0.1,0-0.2-0.1-0.2-0.1c-0.1-0.1-0.2-0.1-0.3-0.2c-0.1-0.1-0.2-0.1-0.3-0.2
		c-0.1,0-0.1-0.1-0.2-0.1c-0.9-0.5-1.8-0.8-2.8-1.1c0,0,0,0,0,0c-0.2,0-0.4-0.1-0.5-0.1c0,0-0.1,0-0.1,0c-0.2,0-0.3-0.1-0.5-0.1
		c-0.1,0-0.1,0-0.2,0c-0.1,0-0.3,0-0.4-0.1c-0.1,0-0.2,0-0.3,0c-0.1,0-0.3,0-0.4,0c-0.1,0-0.3,0-0.4,0c-0.1,0-0.2,0-0.3,0
		c-0.2,0-0.5,0-0.7,0c-2.3,0-4.6,0.6-6.7,1.6c-0.9,0.5-1.3,1.6-0.8,2.6c0.5,0.9,1.6,1.3,2.6,0.8c1.5-0.8,3.2-1.2,4.9-1.2
		c0.2,0,0.3,0,0.5,0c0.1,0,0.1,0,0.2,0c0.1,0,0.2,0,0.3,0c0.1,0,0.2,0,0.3,0c0.1,0,0.1,0,0.2,0c0.1,0,0.2,0,0.3,0.1c0,0,0.1,0,0.1,0
		c0.1,0,0.2,0,0.4,0.1c0,0,0,0,0.1,0c0.9,0.2,1.7,0.5,2.5,0.9c0,0,0.1,0,0.1,0c0.1,0.1,0.2,0.1,0.3,0.2c0.1,0,0.1,0.1,0.2,0.1
		c0.1,0,0.2,0.1,0.2,0.1c0.1,0,0.1,0.1,0.2,0.1c0.1,0,0.1,0.1,0.2,0.1c0.1,0.1,0.2,0.1,0.3,0.2c0,0,0.1,0.1,0.1,0.1
		c0.1,0.1,0.2,0.2,0.3,0.2c0,0,0.1,0,0.1,0.1c0.1,0.1,0.2,0.1,0.2,0.2c0.1,0.1,0.2,0.1,0.2,0.2c0.1,0.1,0.1,0.1,0.2,0.2
		c0.1,0.1,0.1,0.1,0.2,0.2c0.1,0.1,0.1,0.1,0.2,0.2c0.1,0.1,0.1,0.1,0.2,0.2c0.1,0.1,0.1,0.1,0.2,0.2c0.1,0.1,0.1,0.1,0.2,0.2
		c0.1,0.1,0.1,0.1,0.2,0.2c0.1,0.1,0.2,0.3,0.3,0.4c0,0.1,0.1,0.1,0.1,0.2c0.1,0.1,0.1,0.2,0.2,0.3c0,0.1,0.1,0.1,0.1,0.2
		c0.1,0.1,0.1,0.2,0.2,0.3c0,0.1,0.1,0.1,0.1,0.2c0.1,0.1,0.1,0.2,0.2,0.3c0,0.1,0,0.1,0.1,0.2c0.1,0.1,0.1,0.2,0.2,0.4
		c0,0,0,0.1,0.1,0.1c0,0.1,0.1,0.3,0.1,0.4c0,0,0,0.1,0,0.1c0,0.1,0.1,0.3,0.1,0.4c0,0,0,0.1,0,0.1c0,0.1,0.1,0.3,0.1,0.4
		c0,0,0,0.1,0,0.1c0,0.1,0.1,0.3,0.1,0.4c0,0,0,0.1,0,0.1c0,0.1,0,0.3,0.1,0.4c0,0,0,0.1,0,0.1c0,0.1,0,0.3,0,0.4c0,0,0,0.1,0,0.1
		c0,0.2,0,0.4,0,0.6v0c-1.8-0.7-3.4-1.9-4.5-3.6c-0.3-0.5-0.9-0.8-1.4-0.9c-0.6,0-1.2,0.2-1.6,0.6c-2.5,2.8-6.1,4.4-9.8,4.4
		c-1.4,0-2.8-0.2-4.2-0.7c0,0,0-0.1,0-0.1c0-0.2,0-0.4,0-0.5c0,0,0,0,0,0c0-0.2,0-0.4,0.1-0.6c0,0,0,0,0,0c0.2-1.3,0.6-2.5,1.2-3.6
		c0.5-0.9,0.1-2.1-0.8-2.6c-0.9-0.5-2.1-0.1-2.6,0.8c-0.4,0.7-0.7,1.5-1,2.3c0,0,0,0.1,0,0.1c-0.3,0.8-0.5,1.7-0.6,2.6c0,0,0,0,0,0
		c0,0.3-0.1,0.6-0.1,0.8c0,0,0,0.1,0,0.1c0,0.3,0,0.5,0,0.8v1.2V88C9.3,96,15.8,102.5,23.9,102.5z M13.1,85.7
		c1.4,0.3,2.8,0.5,4.2,0.5c4,0,8-1.5,11-4.1c1.7,1.8,3.9,3.1,6.3,3.7V88c0,5.9-4.8,10.7-10.7,10.7S13.1,93.9,13.1,88
		C13.1,88,13.1,85.7,13.1,85.7z"/>
	<path class="st0" d="M49.5,62.7c1.1,0,1.9-0.9,1.9-1.9V49.2c0-5.1,4.1-9.2,9.2-9.2h0.6l-2.9,10c-0.2,0.7,0,1.4,0.5,1.9l5,5.1
		c0.4,0.4,0.8,0.6,1.4,0.6c0.5,0,1-0.2,1.4-0.6l5-5.1c0.5-0.5,0.7-1.2,0.5-1.9l-2.9-10h0.6c5.1,0,9.2,4.1,9.2,9.2v11.6
		c0,1.1,0.9,1.9,1.9,1.9c1.1,0,1.9-0.9,1.9-1.9V49.2c0-7.2-5.8-13-13-13h-3.1h-2.6h-3.1c-7.2,0-13,5.8-13,13v11.6
		C47.6,61.8,48.4,62.7,49.5,62.7z M65,52.9L62.2,50l2.8-9.6l2.8,9.6L65,52.9z"/>
	<path class="st0" d="M65,35.2c8,0,14.5-6.5,14.5-14.5v-3.7v-2.4c0-0.3,0-0.5,0-0.8c0-0.1,0-0.1,0-0.2c0-0.2,0-0.4,0-0.6
		c0-0.1,0-0.1,0-0.2c0-0.2,0-0.4-0.1-0.6c0-0.1,0-0.1,0-0.2c0-0.2-0.1-0.4-0.1-0.6c0-0.1,0-0.1,0-0.2c0-0.2-0.1-0.4-0.1-0.6
		c0-0.1,0-0.1-0.1-0.2c0-0.2-0.1-0.3-0.2-0.5c0-0.1,0-0.1-0.1-0.2c-0.1-0.2-0.1-0.3-0.2-0.5c0-0.1-0.1-0.2-0.1-0.2
		c-0.1-0.1-0.1-0.3-0.2-0.4c0-0.1-0.1-0.2-0.1-0.3C78.1,8.3,78.1,8.1,78,8c-0.1-0.1-0.1-0.2-0.2-0.3c-0.1-0.1-0.1-0.2-0.2-0.3
		c-0.1-0.1-0.1-0.2-0.2-0.4c0-0.1-0.1-0.1-0.1-0.2c-0.4-0.7-0.9-1.4-1.5-2c0,0,0-0.1-0.1-0.1c-0.1-0.1-0.2-0.3-0.4-0.4
		c0,0-0.1-0.1-0.1-0.1C75.1,4.1,75,4,74.9,3.9c-0.1-0.1-0.1-0.1-0.2-0.2c-0.1,0-0.1-0.1-0.2-0.2c0,0,0,0-0.1-0.1
		c-0.1-0.1-0.1-0.1-0.2-0.2c0,0,0,0,0,0c-0.2-0.1-0.3-0.3-0.5-0.4c0,0-0.1,0-0.1-0.1c-0.1-0.1-0.3-0.2-0.4-0.3
		c-0.1,0-0.1-0.1-0.2-0.1c-0.1-0.1-0.2-0.2-0.4-0.2c-0.1,0-0.2-0.1-0.2-0.1c-0.1-0.1-0.2-0.1-0.3-0.2c-0.1-0.1-0.2-0.1-0.3-0.2
		c-0.1,0-0.1-0.1-0.2-0.1c-0.9-0.5-1.8-0.8-2.8-1.1c0,0,0,0,0,0c-0.2,0-0.4-0.1-0.5-0.1c0,0-0.1,0-0.1,0c-0.2,0-0.3-0.1-0.5-0.1
		c-0.1,0-0.1,0-0.2,0c-0.1,0-0.3,0-0.4-0.1c-0.1,0-0.2,0-0.3,0c-0.1,0-0.3,0-0.4,0c-0.1,0-0.3,0-0.4,0c-0.1,0-0.2,0-0.3,0
		c-0.2,0-0.5,0-0.7,0c-2.3,0-4.6,0.6-6.7,1.6c-0.9,0.5-1.3,1.6-0.8,2.6C58,5.1,59.2,5.5,60.1,5c1.5-0.8,3.2-1.2,4.9-1.2
		c0.2,0,0.3,0,0.5,0c0.1,0,0.1,0,0.2,0c0.1,0,0.2,0,0.3,0c0.1,0,0.2,0,0.3,0c0.1,0,0.1,0,0.2,0c0.1,0,0.2,0,0.3,0.1c0,0,0.1,0,0.1,0
		c0.1,0,0.2,0,0.4,0.1c0,0,0,0,0.1,0c0.9,0.2,1.7,0.5,2.5,0.9c0,0,0.1,0,0.1,0c0.1,0.1,0.2,0.1,0.3,0.2c0.1,0,0.1,0.1,0.2,0.1
		c0.1,0,0.2,0.1,0.2,0.1c0.1,0,0.1,0.1,0.2,0.1c0.1,0,0.1,0.1,0.2,0.1c0.1,0.1,0.2,0.1,0.3,0.2c0,0,0.1,0.1,0.1,0.1
		c0.1,0.1,0.2,0.2,0.3,0.2c0,0,0,0,0.1,0.1c0.1,0.1,0.2,0.1,0.2,0.2c0.1,0.1,0.2,0.1,0.2,0.2c0.1,0.1,0.1,0.1,0.2,0.2
		c0.1,0.1,0.1,0.1,0.2,0.2c0.1,0.1,0.1,0.1,0.2,0.2C73,7.3,73,7.4,73.1,7.5c0.1,0.1,0.1,0.1,0.2,0.2c0.1,0.1,0.1,0.1,0.2,0.2
		C73.5,8,73.5,8,73.6,8.1c0.1,0.1,0.2,0.2,0.2,0.3C73.9,8.6,74,8.6,74,8.7c0.1,0.1,0.1,0.2,0.2,0.3c0,0.1,0.1,0.1,0.1,0.2
		c0.1,0.1,0.1,0.2,0.2,0.3c0,0.1,0.1,0.1,0.1,0.2c0.1,0.1,0.1,0.2,0.2,0.3c0,0.1,0,0.1,0.1,0.2c0.1,0.1,0.1,0.2,0.2,0.4
		c0,0,0,0.1,0.1,0.1c0,0.1,0.1,0.3,0.1,0.4c0,0,0,0.1,0,0.1c0,0.1,0.1,0.3,0.1,0.4c0,0,0,0.1,0,0.1c0,0.1,0.1,0.3,0.1,0.4
		c0,0,0,0.1,0,0.1c0,0.1,0.1,0.3,0.1,0.4c0,0,0,0.1,0,0.1c0,0.1,0,0.3,0.1,0.4c0,0,0,0.1,0,0.1c0,0.1,0,0.3,0,0.4c0,0,0,0.1,0,0.1
		c0,0.2,0,0.4,0,0.6v0c-1.8-0.7-3.4-1.9-4.5-3.6c-0.3-0.5-0.9-0.8-1.4-0.9c-0.6,0-1.2,0.2-1.6,0.6c-2.5,2.8-6.1,4.4-9.8,4.4
		c-1.4,0-2.8-0.2-4.2-0.7c0,0,0-0.1,0-0.1c0-0.2,0-0.4,0-0.5c0,0,0,0,0,0c0-0.2,0-0.4,0.1-0.6c0,0,0,0,0,0c0.2-1.3,0.6-2.5,1.2-3.6
		c0.5-0.9,0.1-2.1-0.8-2.6c-0.9-0.5-2.1-0.1-2.6,0.8c-0.4,0.7-0.7,1.5-1,2.3c0,0,0,0.1,0,0.1c-0.3,0.8-0.5,1.7-0.6,2.6c0,0,0,0,0,0
		c0,0.3-0.1,0.5-0.1,0.8c0,0,0,0.1,0,0.1c0,0.3,0,0.5,0,0.8v1.2v4.9C50.5,28.7,57,35.2,65,35.2z M54.3,18.4c1.4,0.3,2.8,0.5,4.2,0.5
		c4,0,8-1.5,11-4.1c1.7,1.8,3.9,3.1,6.3,3.7v2.1c0,5.9-4.8,10.7-10.7,10.7s-10.7-4.8-10.7-10.7L54.3,18.4L54.3,18.4z"/>
	<path class="st0" d="M93.6,66.2c0.4,0.5,0.9,0.8,1.5,0.8c0.4,0,0.8-0.1,1.1-0.4c0.8-0.6,1-1.8,0.4-2.7c-2.3-3.1-5.1-5.8-8.2-8.1
		c-0.8-0.6-2-0.4-2.7,0.4c-0.6,0.8-0.4,2,0.4,2.7C89,60.9,91.5,63.4,93.6,66.2z"/>
	<path class="st0" d="M82.1,119.4c-5.2,2.8-11.1,4.3-17.1,4.3c-6,0-12-1.5-17.2-4.4c-0.9-0.5-2.1-0.2-2.6,0.8
		c-0.5,0.9-0.2,2.1,0.8,2.6c5.8,3.2,12.4,4.9,19.1,4.9c6.6,0,13.2-1.7,18.9-4.8c0.9-0.5,1.3-1.7,0.8-2.6
		C84.2,119.2,83,118.9,82.1,119.4z"/>
	<path class="st0" d="M41.5,55.8c-3.1,2.3-5.8,4.9-8.1,8c-0.6,0.8-0.5,2,0.4,2.7c0.3,0.3,0.8,0.4,1.2,0.4c0.6,0,1.1-0.3,1.5-0.8
		c2.1-2.7,4.6-5.2,7.3-7.2c0.8-0.6,1-1.8,0.4-2.7C43.5,55.4,42.4,55.2,41.5,55.8z"/>
	<path class="st0" d="M110.6,103.5h-3.1h-2.6h-3.1c-7.2,0-13,5.8-13,13v11.6c0,1.1,0.9,1.9,1.9,1.9s1.9-0.9,1.9-1.9v-11.6
		c0-5.1,4.1-9.2,9.2-9.2h0.6l-2.9,10c-0.2,0.7,0,1.4,0.5,1.9l5,5.1c0.4,0.4,0.8,0.6,1.4,0.6c0.5,0,1-0.2,1.4-0.6l5-5.1
		c0.5-0.5,0.7-1.2,0.5-1.9l-2.9-10h0.6c5.1,0,9.2,4.1,9.2,9.2v11.6c0,1.1,0.9,1.9,1.9,1.9s1.9-0.9,1.9-1.9v-11.6
		C123.6,109.4,117.7,103.5,110.6,103.5z M106.1,120.2l-2.8-2.9l2.8-9.6l2.8,9.6L106.1,120.2z"/>
	<path class="st0" d="M101.2,72.3c1.5-0.8,3.2-1.2,4.9-1.2c0.2,0,0.3,0,0.5,0c0.1,0,0.1,0,0.2,0c0.1,0,0.2,0,0.3,0
		c0.1,0,0.2,0,0.3,0c0.1,0,0.1,0,0.2,0c0.1,0,0.2,0,0.3,0.1c0,0,0.1,0,0.1,0c0.1,0,0.2,0,0.4,0.1c0,0,0,0,0.1,0
		c0.9,0.2,1.7,0.5,2.5,0.9c0,0,0.1,0,0.1,0c0.1,0.1,0.2,0.1,0.3,0.2c0.1,0,0.1,0.1,0.2,0.1c0.1,0,0.2,0.1,0.2,0.1
		c0.1,0,0.1,0.1,0.2,0.1c0.1,0,0.1,0.1,0.2,0.1c0.1,0.1,0.2,0.1,0.3,0.2c0,0,0.1,0.1,0.1,0.1c0.1,0.1,0.2,0.2,0.3,0.2
		c0,0,0.1,0,0.1,0.1c0.1,0.1,0.2,0.1,0.2,0.2c0.1,0.1,0.1,0.1,0.2,0.2c0.1,0.1,0.1,0.1,0.2,0.2c0.1,0.1,0.1,0.1,0.2,0.2
		c0.1,0.1,0.1,0.1,0.2,0.2c0.1,0.1,0.1,0.1,0.2,0.2c0.1,0.1,0.1,0.1,0.2,0.2c0.1,0.1,0.1,0.1,0.1,0.2c0.1,0.1,0.1,0.2,0.2,0.2
		c0.1,0.1,0.1,0.2,0.2,0.3c0.1,0.1,0.2,0.2,0.2,0.3c0.1,0.1,0.1,0.2,0.2,0.3c0,0.1,0.1,0.1,0.1,0.2c0.1,0.1,0.1,0.2,0.2,0.3
		c0,0.1,0.1,0.1,0.1,0.2c0.1,0.1,0.1,0.2,0.2,0.3c0,0.1,0,0.1,0.1,0.2c0.1,0.1,0.1,0.2,0.2,0.4c0,0,0,0.1,0.1,0.1
		c0,0.1,0.1,0.3,0.1,0.4c0,0,0,0.1,0,0.1c0,0.1,0.1,0.3,0.1,0.4c0,0,0,0.1,0,0.1c0,0.1,0.1,0.3,0.1,0.4c0,0,0,0.1,0,0.1
		c0,0.1,0.1,0.3,0.1,0.4c0,0,0,0.1,0,0.1c0,0.1,0,0.3,0.1,0.4c0,0,0,0.1,0,0.1c0,0.1,0,0.3,0,0.4c0,0,0,0.1,0,0.1c0,0.2,0,0.4,0,0.6
		v0c-1.8-0.7-3.4-1.9-4.5-3.6c-0.3-0.5-0.9-0.8-1.4-0.9c-0.6,0-1.2,0.2-1.6,0.6c-2.5,2.8-6.1,4.4-9.8,4.4c-1.4,0-2.8-0.2-4.2-0.7
		c0,0,0-0.1,0-0.1c0-0.2,0-0.4,0-0.5c0,0,0,0,0,0c0-0.2,0-0.4,0.1-0.6c0,0,0,0,0,0c0.2-1.3,0.6-2.5,1.2-3.6c0.5-0.9,0.1-2.1-0.8-2.6
		c-0.9-0.5-2.1-0.1-2.6,0.8c-0.4,0.7-0.7,1.5-1,2.3c0,0,0,0.1,0,0.1c-0.3,0.8-0.5,1.7-0.6,2.6c0,0,0,0,0,0c0,0.3-0.1,0.5-0.1,0.8
		c0,0,0,0.1,0,0.1c0,0.3,0,0.5,0,0.8v1.2V88c0,8,6.5,14.5,14.5,14.5S120.7,96,120.7,88v-3.7v-2.4c0-0.3,0-0.5,0-0.8
		c0-0.1,0-0.1,0-0.2c0-0.2,0-0.4,0-0.6c0-0.1,0-0.1,0-0.2c0-0.2,0-0.4-0.1-0.6c0-0.1,0-0.1,0-0.2c0-0.2-0.1-0.4-0.1-0.6
		c0-0.1,0-0.1,0-0.2c0-0.2-0.1-0.4-0.1-0.5c0-0.1,0-0.1-0.1-0.2c0-0.2-0.1-0.3-0.2-0.5c0-0.1-0.1-0.2-0.1-0.2
		c-0.1-0.2-0.1-0.3-0.2-0.5c0-0.1-0.1-0.2-0.1-0.3c-0.1-0.1-0.1-0.3-0.2-0.4c0-0.1-0.1-0.2-0.1-0.3c-0.1-0.1-0.1-0.2-0.2-0.4
		c-0.1-0.1-0.1-0.2-0.2-0.3c-0.1-0.1-0.1-0.2-0.2-0.3c-0.1-0.1-0.1-0.2-0.2-0.4c0-0.1-0.1-0.1-0.1-0.2c-0.4-0.7-1-1.4-1.5-2
		c0,0,0-0.1-0.1-0.1c-0.1-0.1-0.2-0.3-0.4-0.4c0,0-0.1-0.1-0.1-0.1c-0.1-0.1-0.2-0.2-0.4-0.3c-0.1-0.1-0.1-0.1-0.2-0.2
		c-0.1-0.1-0.1-0.1-0.2-0.2c0,0,0,0-0.1-0.1c-0.1-0.1-0.1-0.1-0.2-0.2c0,0,0,0,0,0c-0.2-0.1-0.3-0.3-0.5-0.4c0,0-0.1-0.1-0.1-0.1
		c-0.1-0.1-0.3-0.2-0.4-0.3c-0.1,0-0.1-0.1-0.2-0.1c-0.1-0.1-0.2-0.2-0.4-0.2c-0.1,0-0.2-0.1-0.2-0.1c-0.1-0.1-0.2-0.1-0.3-0.2
		c-0.1-0.1-0.2-0.1-0.3-0.2c-0.1,0-0.1-0.1-0.2-0.1c-0.9-0.5-1.8-0.8-2.8-1.1c0,0,0,0,0,0c-0.2,0-0.4-0.1-0.5-0.1c0,0-0.1,0-0.1,0
		c-0.2,0-0.3-0.1-0.5-0.1c-0.1,0-0.1,0-0.2,0c-0.1,0-0.3,0-0.4-0.1c-0.1,0-0.2,0-0.3,0c-0.1,0-0.3,0-0.4,0c-0.1,0-0.3,0-0.4,0
		c-0.1,0-0.2,0-0.3,0c-0.2,0-0.5,0-0.7,0c-2.3,0-4.6,0.6-6.7,1.6c-0.9,0.5-1.3,1.6-0.8,2.6S100.3,72.8,101.2,72.3z M106.1,98.7
		c-5.9,0-10.7-4.8-10.7-10.7v-2.3c1.4,0.3,2.8,0.5,4.2,0.5c4,0,8-1.5,11-4.1c1.7,1.8,3.9,3.1,6.3,3.7V88
		C116.9,93.9,112.1,98.7,106.1,98.7z"/>
	<path class="st0" d="M46.7,95l2.9,5c0.4,0.8,1.3,1.1,2.2,0.9l4.6-1.3c0.8,0.6,1.7,1.1,2.6,1.5l1.2,4.6c0.2,0.8,1,1.4,1.8,1.4h5.8
		c0.9,0,1.6-0.6,1.8-1.4l1.2-4.6c0.9-0.4,1.8-0.9,2.6-1.5l4.6,1.3c0.8,0.2,1.7-0.1,2.2-0.9l2.9-5c0.4-0.8,0.3-1.7-0.3-2.3l-3.4-3.4
		c0.1-0.5,0.1-1,0.1-1.5c0-0.5,0-1-0.1-1.5l3.4-3.4c0.6-0.6,0.7-1.6,0.3-2.3l-2.9-5c-0.4-0.8-1.3-1.1-2.2-0.9L73.6,76
		c-0.8-0.6-1.7-1.1-2.6-1.5l-1.2-4.6c-0.2-0.8-1-1.4-1.8-1.4h-5.8c-0.9,0-1.6,0.6-1.8,1.4L59,74.5c-0.9,0.4-1.8,0.9-2.6,1.5
		l-4.6-1.3c-0.8-0.2-1.7,0.1-2.2,0.9l-2.9,5c-0.4,0.8-0.3,1.7,0.3,2.3l3.4,3.4c-0.1,0.5-0.1,1-0.1,1.5s0,1,0.1,1.5l-3.4,3.4
		C46.4,93.3,46.3,94.3,46.7,95z M54.4,89.7c-0.1-0.6-0.2-1.3-0.2-1.9c0-0.6,0.1-1.2,0.2-1.9c0.1-0.6-0.1-1.2-0.5-1.7l-3.1-3l1.4-2.5
		l4.1,1.1c0.6,0.2,1.3,0,1.7-0.4c1-0.8,2-1.4,3.2-1.9c0.6-0.2,1-0.7,1.2-1.3l1.1-4.1h2.9l1.1,4.1c0.2,0.6,0.6,1.1,1.2,1.3
		c1.2,0.4,2.3,1.1,3.2,1.9c0.5,0.4,1.1,0.5,1.7,0.4l4.1-1.1l1.4,2.5l-3.1,3c-0.4,0.4-0.6,1.1-0.5,1.7c0.1,0.6,0.2,1.3,0.2,1.9
		c0,0.6-0.1,1.2-0.2,1.9c-0.1,0.6,0.1,1.2,0.5,1.7l3.1,3l-1.4,2.5l-4.1-1.1c-0.6-0.2-1.3,0-1.7,0.4c-1,0.8-2,1.4-3.2,1.9
		c-0.6,0.2-1,0.7-1.2,1.3l-1.1,4.1h-2.9l-1.1-4.1c-0.2-0.6-0.6-1.1-1.2-1.3c-1.2-0.4-2.3-1.1-3.2-1.9c-0.5-0.4-1.1-0.5-1.7-0.4
		l-4.1,1.1l-1.4-2.5l3.1-3C54.3,90.9,54.5,90.3,54.4,89.7z"/>
	<path class="st0" d="M65,94.5c3.7,0,6.7-3,6.7-6.7c0-1.1-0.9-1.9-1.9-1.9c-1.1,0-1.9,0.9-1.9,1.9c0,1.6-1.3,2.9-2.9,2.9
		s-2.9-1.3-2.9-2.9c0-1.6,1.3-2.9,2.9-2.9c1.1,0,1.9-0.9,1.9-1.9c0-1.1-0.9-1.9-1.9-1.9c-3.7,0-6.7,3-6.7,6.7
		C58.3,91.5,61.3,94.5,65,94.5z"/>
</g>
</svg>
