<?xml version="1.0" encoding="utf-8"?>
<!-- Generator: Adobe Illustrator 24.0.1, SVG Export Plug-In . SVG Version: 6.00 Build 0)  -->
<svg version="1.1" id="calendarSvg" xmlns="http://www.w3.org/2000/svg" xmlns:xlink="http://www.w3.org/1999/xlink" x="0px" y="0px"
	 viewBox="0 0 748 661" style="enable-background:new 0 0 748 661;" xml:space="preserve">
<style type="text/css">
	.st0{fill:#F4F4F4;}
	.svgMain{fill:#0231E1;}
	.st2{fill:#424242;}
	.st3{fill:#C4C4C4;}
	.st4{fill:none;stroke:#424242;stroke-width:2.21;stroke-miterlimit:10;}
	.crosses{fill:none;stroke:#CA78FE;stroke-width:4;stroke-miterlimit:10;}
	.svgSecond{fill:#CA78FE;}
	.st7{fill:#F7F7F7;}
</style>
<g>
	<g id="i_calendar">
		<g id="calendar">
			<g>
				<path class="st0" d="M568.5,638.9H51.6C27.5,638.9,8,622.7,8,602.6V134.2h604.1v468.4C612.1,622.7,592.6,638.9,568.5,638.9z"/>
			</g>
			<path id="bar_color" class="svgMain" d="M612.1,54.8v79.4H8V54.8C8,39,23.4,26.2,42.3,26.2h535.5C596.7,26.2,612.1,39,612.1,54.8z"/>
			<g>
				<g>
					<circle class="st2" cx="477.1" cy="79.5" r="23.7"/>
					<path class="st3" d="M477.1,88.4L477.1,88.4c7.5,0,13.6-6.1,13.6-13.6V13.5C490.6,6,484.6,0,477.1,0l0,0
						c-7.5,0-13.5,6-13.6,13.5v61.3C463.5,82.3,469.6,88.4,477.1,88.4z"/>
				</g>
				<g>
					<circle class="st2" cx="143" cy="79.5" r="23.7"/>
					<path class="st3" d="M143,88.4L143,88.4c7.5,0,13.6-6.1,13.6-13.6v0V13.5C156.5,6,150.5,0,143,0l0,0c-7.5,0-13.5,6-13.6,13.5
						v61.3C129.4,82.3,135.5,88.4,143,88.4z"/>
				</g>
			</g>
		</g>
		<g id="days">
			<g>
				
					<rect x="327.9" y="215.9" transform="matrix(1.745432e-03 -1 1 1.745432e-03 111.3542 638.983)" class="st4" width="95.7" height="95.7"/>
				
					<rect x="452.9" y="215.9" transform="matrix(1.745432e-03 -1 1 1.745432e-03 236.0542 764.0645)" class="st4" width="95.7" height="95.7"/>
				
					<rect x="200.6" y="215.6" transform="matrix(1.745432e-03 -1 1 1.745432e-03 -15.4463 511.4053)" class="st4" width="95.7" height="95.7"/>
				
					<rect x="73.3" y="215.2" transform="matrix(1.745432e-03 -1 1 1.745432e-03 -142.1468 383.7279)" class="st4" width="95.7" height="95.7"/>
			</g>
			<g>
				<rect x="328" y="336.7" class="st4" width="95.7" height="95.7"/>
				<rect x="453" y="336.7" class="st4" width="95.7" height="95.7"/>
				<rect x="200.7" y="336.7" class="st4" width="95.7" height="95.7"/>
				<rect x="73.7" y="336.7" class="st4" width="95.7" height="95.7"/>
				<g id="cross3">
					<line class="crosses" x1="108.1" y1="370.9" x2="134.6" y2="398.3"/>
					<line class="crosses" x1="134.6" y1="370.9" x2="108.1" y2="398.3"/>
				</g>
				<g id="cross2">
					<line class="crosses" x1="362.1" y1="249.9" x2="388.6" y2="277.3"/>
					<line class="crosses" x1="388.6" y1="249.9" x2="362.1" y2="277.3"/>
				</g>
				<g id="cross1">
					<line class="crosses" x1="235.1" y1="370.9" x2="261.6" y2="398.3"/>
					<line class="crosses" x1="261.6" y1="370.9" x2="235.1" y2="398.3"/>
				</g>
			</g>
			<g>
				<rect x="328" y="458.1" class="st4" width="95.7" height="95.7"/>
				<rect x="452" y="458.1" class="st4" width="95.7" height="95.7"/>
				<rect x="200.7" y="458.1" class="st4" width="95.7" height="95.7"/>
				<rect x="73.5" y="458.1" class="st4" width="95.7" height="95.7"/>
			</g>
		</g>
		<g id="clock">
			<g>
				<circle class="svgSecond" cx="590.5" cy="501.2" r="157.4"/>
				<circle class="st7" cx="590.6" cy="501.2" r="132.1"/>
			</g>
			<g>
				<g>
					<g>
						<path class="svgMain" d="M591.3,398.8c-1.8,0-3.3-1.5-3.3-3.3v-7.8c0-1.8,1.5-3.3,3.3-3.3c1.8,0,3.3,1.5,3.3,3.3v7.8
							C594.6,397.3,593.1,398.8,591.3,398.8z"/>
						<path class="svgMain" d="M591.3,619.5c-1.8,0-3.3-1.5-3.3-3.3v-7.8c0-1.8,1.5-3.3,3.3-3.3c1.8,0,3.3,1.5,3.3,3.3v7.8
							C594.6,618,593.1,619.5,591.3,619.5z"/>
					</g>
					<g>
						<path class="svgMain" d="M516,430c-0.9,0-1.7-0.3-2.3-1l-5.5-5.5c-1.3-1.3-1.3-3.4,0-4.7s3.4-1.3,4.7,0l5.5,5.5
							c1.3,1.3,1.3,3.4,0,4.7c0,0,0,0,0,0C517.8,429.6,516.9,430,516,430z"/>
						<path class="svgMain" d="M672.1,586c-0.9,0-1.7-0.3-2.4-0.9l-5.5-5.5c-1.3-1.3-1.3-3.4,0-4.7s3.4-1.3,4.7,0l0,0l5.5,5.5
							c1.3,1.3,1.2,3.4-0.1,4.7C673.7,585.6,672.9,586,672.1,586L672.1,586z"/>
					</g>
					<g>
						<path class="svgMain" d="M510.5,586c-1.8,0-3.3-1.5-3.2-3.4c0-0.8,0.4-1.6,0.9-2.2l5.5-5.5c1.3-1.3,3.4-1.3,4.7,0s1.3,3.4,0,4.7
							l-5.5,5.5C512.2,585.7,511.4,586,510.5,586z"/>
						<path class="svgMain" d="M666.6,430c-0.9,0-1.8-0.4-2.4-1c-1.3-1.3-1.3-3.4,0-4.7c0,0,0,0,0,0l5.5-5.5c1.3-1.3,3.4-1.3,4.7,0
							s1.3,3.4,0,4.7l0,0l-5.5,5.5C668.3,429.7,667.5,430,666.6,430z"/>
					</g>
					<g>
						<path class="svgMain" d="M484.8,505.3H477c-1.9-0.3-3.1-2.1-2.8-3.9c0.2-1.4,1.4-2.5,2.8-2.8h7.8c1.9-0.3,3.6,0.9,3.9,2.8
							c0.3,1.9-0.9,3.6-2.8,3.9C485.6,505.4,485.2,505.4,484.8,505.3z"/>
						<path class="svgMain" d="M705.5,505.3h-7.8c-1.9-0.3-3.1-2.1-2.8-3.9c0.2-1.4,1.4-2.5,2.8-2.8h7.8c1.9-0.3,3.6,0.9,3.9,2.8
							s-0.9,3.6-2.8,3.9C706.3,505.4,705.9,505.4,705.5,505.3z"/>
					</g>
				</g>
				<g>
					<path id="hand" class="svgMain" d="M599.2,500.7h-15.8v-68.8c-0.1-4.4,3.4-7.9,7.8-8c0,0,0.1,0,0.1,0l0,0c4.4,0,7.9,3.5,7.9,7.9
						c0,0,0,0.1,0,0.1L599.2,500.7z"/>
					<circle class="st2" cx="591.3" cy="500.7" r="18.2"/>
				</g>
			</g>
		</g>
	</g>
</g>
</svg>
