<?xml version="1.0" encoding="utf-8"?>
<!-- Generator: Adobe Illustrator 24.0.1, SVG Export Plug-In . SVG Version: 6.00 Build 0)  -->
<svg version="1.1" id="Capa_1" xmlns="http://www.w3.org/2000/svg" xmlns:xlink="http://www.w3.org/1999/xlink" x="0px" y="0px"
	 viewBox="0 0 512 512" style="enable-background:new 0 0 512 512;" xml:space="preserve">
<style type="text/css">
	.st0{fill:#0B304C;}
</style>
<g>
	<g>
		<path class="st0" d="M266.9,0L17.5,249.9c-23.3,23.4-23.3,61.4,0,84.8L177,494.4c11.3,11.3,26.4,17.6,42.4,17.6c0,0,0,0,0,0
			c16,0,31.1-6.2,42.4-17.5L512,244.6V0H266.9z M472,228L233.6,466.2c-3.8,3.8-8.8,5.8-14.1,5.8c0,0,0,0,0,0
			c-5.3,0-10.4-2.1-14.1-5.9L45.8,306.4c-7.8-7.8-7.8-20.5,0-28.3L283.5,40H472V228z"/>
	</g>
</g>
<g>
	<g>
		<circle class="st0" cx="376" cy="136" r="32"/>
	</g>
</g>
</svg>
