<?xml version="1.0" encoding="utf-8"?>
<!-- Generator: Adobe Illustrator 24.0.1, SVG Export Plug-In . SVG Version: 6.00 Build 0)  -->
<svg version="1.1" id="Capa_1" xmlns="http://www.w3.org/2000/svg" xmlns:xlink="http://www.w3.org/1999/xlink" x="0px" y="0px"
	 viewBox="0 0 130 130" style="enable-background:new 0 0 130 130;" xml:space="preserve">
<style type="text/css">
	.st0{fill:#C4C4C4;}
</style>
<g>
	<g>
		<g>
			<path class="st0" d="M127.8,0C127.8,0,127.8,0,127.8,0H2.2C1,0,0,1,0,2.2c0,0,0,0,0,0v43.3h4.3V4.3h121.3V52H49.8v4.3h78
				c1.2,0,2.2-1,2.2-2.2c0,0,0,0,0,0v-52C130,1,129,0,127.8,0z"/>
		</g>
	</g>
	<g>
		<g>
			<rect x="71.5" y="10.8" class="st0" width="43.3" height="4.3"/>
		</g>
	</g>
	<g>
		<g>
			<rect x="78" y="23.8" class="st0" width="43.3" height="4.3"/>
		</g>
	</g>
	<g>
		<g>
			<rect x="69.3" y="36.8" class="st0" width="43.3" height="4.3"/>
		</g>
	</g>
	<g>
		<g>
			<path class="st0" d="M69.2,18.7c-1.5-3.6-5.6-5.3-9.1-3.8c-0.1,0-0.1,0.1-0.2,0.1l-17.6,9.1c0.7-1.4,1.1-3,1.1-4.6
				c0-6-4.9-10.8-10.8-10.8s-10.8,4.9-10.8,10.8c0,2.4,0.8,4.6,2.2,6.5h-0.1c-6.2,0-11.6,3.9-13.8,9.6L4.2,55.6
				c-1.4,3.6,0.4,7.6,4,9c1.6,0.6,3.4,0.6,5.1,0c1.9-0.8,3.3-2.3,4-4.2l2.3-7.2v31.4c-1.9-1.4-4.1-2.2-6.5-2.2
				c-6,0-10.8,4.8-10.8,10.8c0,2.9,1.2,5.7,3.3,7.8c-3.3,1.7-5.4,5.1-5.4,8.9v18.2c0,1.2,1,2.2,2.2,2.2c0,0,0,0,0,0h21.7
				c1.2,0,2.2-1,2.2-2.2c0,0,0,0,0,0v-18.2c0-3.1-1.4-6-3.9-7.8h16.4c-2.4,1.9-3.9,4.8-3.9,7.8v18.2c0,1.2,1,2.2,2.2,2.2
				c0,0,0,0,0,0h21.7c1.2,0,2.2-1,2.2-2.2c0,0,0,0,0,0v-18.2c0-3.7-2.1-7.2-5.4-8.9c4.3-4.2,4.4-11,0.2-15.3c-2.6-2.6-6.3-3.8-9.9-3
				V38.1l19.9-10.3C69,26.3,70.6,22.2,69.2,18.7z M32.5,13c3.6,0,6.5,2.9,6.5,6.5S36.1,26,32.5,26c-3.6,0-6.5-2.9-6.5-6.5
				C26,15.9,28.9,13,32.5,13z M13,86.6c3.6,0,6.5,2.9,6.5,6.5s-2.9,6.5-6.5,6.5s-6.5-2.9-6.5-6.5C6.5,89.5,9.4,86.6,13,86.6z
				 M21.7,125.7H4.3v-16c0-3.1,2.5-5.7,5.7-5.7h6c3.1,0,5.7,2.5,5.7,5.7V125.7z M56.3,109.7v16H39v-16c0-3.1,2.5-5.7,5.7-5.7h6
				C53.8,104,56.3,106.5,56.3,109.7z M47.7,86.6c3.6,0,6.5,2.9,6.5,6.5c0,3.6-2.9,6.5-6.5,6.5s-6.5-2.9-6.5-6.5S44.1,86.6,47.7,86.6
				z M65.2,22.3c-0.3,0.7-0.9,1.3-1.6,1.6l-21.2,11c-0.7,0.4-1.2,1.1-1.2,1.9v47.6c-4.1,3-5.5,8.4-3.4,13h-3.1V60.7h-4.3v36.8h-7.5
				c0.6-1.4,0.9-2.8,1-4.3h0V39c0-1.2-1-2.2-2.2-2.2c-0.9,0-1.8,0.6-2.1,1.5l-6.5,20.6c-0.5,1.4-2,2.1-3.3,1.6
				c-0.1,0-0.2-0.1-0.3-0.1c-1.2-0.6-1.8-2.2-1.2-3.4L14.1,37c1.6-4,5.4-6.7,9.7-6.7h15.3c0.3,0,0.7-0.1,1-0.2l21.5-11.2
				c1.3-0.5,2.8,0,3.4,1.3C65.4,20.8,65.5,21.6,65.2,22.3z"/>
		</g>
	</g>
	<g>
		<g>
			<path class="st0" d="M89.9,100.8c4.3-4.2,4.4-11,0.2-15.3s-11-4.4-15.3-0.2c-4.3,4.2-4.4,11-0.2,15.3c0.1,0.1,0.1,0.1,0.2,0.2
				c-3.3,1.7-5.4,5.1-5.4,8.9v18.2c0,1.2,1,2.2,2.2,2.2c0,0,0,0,0,0h21.7c1.2,0,2.2-1,2.2-2.2c0,0,0,0,0,0v-18.2
				C95.3,105.9,93.2,102.5,89.9,100.8z M82.3,86.6c3.6,0,6.5,2.9,6.5,6.5s-2.9,6.5-6.5,6.5s-6.5-2.9-6.5-6.5
				C75.8,89.5,78.7,86.6,82.3,86.6z M91,125.7H73.7v-16c0-3.1,2.5-5.7,5.7-5.7h6c3.1,0,5.7,2.5,5.7,5.7V125.7z"/>
		</g>
	</g>
	<g>
		<g>
			<path class="st0" d="M124.6,100.8c4.3-4.2,4.4-11,0.2-15.3s-11-4.4-15.3-0.2s-4.4,11-0.2,15.3c0.1,0.1,0.1,0.1,0.2,0.2
				c-3.3,1.7-5.4,5.1-5.4,8.9v18.2c0,1.2,1,2.2,2.2,2.2c0,0,0,0,0,0h21.7c1.2,0,2.2-1,2.2-2.2c0,0,0,0,0,0v-18.2
				C130,105.9,127.9,102.5,124.6,100.8z M117,86.6c3.6,0,6.5,2.9,6.5,6.5s-2.9,6.5-6.5,6.5s-6.5-2.9-6.5-6.5
				C110.5,89.5,113.4,86.6,117,86.6z M125.7,125.7h-17.3v-16c0-3.1,2.5-5.7,5.7-5.7h6c3.1,0,5.7,2.5,5.7,5.7V125.7z"/>
		</g>
	</g>
</g>
</svg>
