<?xml version="1.0" encoding="utf-8"?>
<!-- Generator: Adobe Illustrator 24.0.1, SVG Export Plug-In . SVG Version: 6.00 Build 0)  -->
<svg version="1.1" id="Capa_1" xmlns="http://www.w3.org/2000/svg" xmlns:xlink="http://www.w3.org/1999/xlink" x="0px" y="0px"
	 viewBox="0 0 130 130" style="enable-background:new 0 0 130 130;" xml:space="preserve">
<style type="text/css">
	.st0{fill:#C4C4C4;}
</style>
<g>
	<g>
		<path class="st0" d="M116.7,107.1h-9.1c0-6.3-6-11.4-13.3-11.4H80.6c-7.4,0-13.3,5.1-13.3,11.4h-4.4c0-6.3-6-11.4-13.3-11.4H35.7
			c-7.4,0-13.3,5.1-13.3,11.4h-9.1C6,107.1,0,112.3,0,118.6v9.5c0,1.1,0.9,1.9,1.9,1.9s1.9-0.9,1.9-1.9v-9.5c0-4.2,4.3-7.6,9.5-7.6
			H27c5.3,0,9.5,3.4,9.5,7.6v9.5c0,1.1,0.9,1.9,1.9,1.9s1.9-0.9,1.9-1.9v-9.5c0-6.3-6-11.4-13.3-11.4h-0.8c0-4.2,4.3-7.6,9.5-7.6
			h13.7c5.3,0,9.5,3.4,9.5,7.6h-0.8c-7.4,0-13.3,5.1-13.3,11.4v9.5c0,1.1,0.9,1.9,1.9,1.9s1.9-0.9,1.9-1.9v-9.5
			c0-4.2,4.3-7.6,9.5-7.6h13.7c5.3,0,9.5,3.4,9.5,7.6v9.5c0,1.1,0.9,1.9,1.9,1.9s1.9-0.9,1.9-1.9v-9.5c0-6.3-6-11.4-13.3-11.4H71
			c0-4.2,4.3-7.6,9.5-7.6h13.7c5.3,0,9.5,3.4,9.5,7.6H103c-7.4,0-13.3,5.1-13.3,11.4v9.5c0,1.1,0.9,1.9,1.9,1.9s1.9-0.9,1.9-1.9
			v-9.5c0-4.2,4.3-7.6,9.5-7.6h13.7c5.3,0,9.5,3.4,9.5,7.6v9.5c0,1.1,0.9,1.9,1.9,1.9s1.9-0.9,1.9-1.9v-9.5
			C130,112.3,124,107.1,116.7,107.1z"/>
	</g>
</g>
<g>
	<g>
		<path class="st0" d="M128.1,0H1.9C0.9,0,0,0.9,0,1.9V90c0,1.1,0.9,1.9,1.9,1.9c3.4,0,5.3-1.2,6.8-2.2c1.3-0.9,2.4-1.6,4.7-1.6
			s3.3,0.7,4.7,1.6c1.5,1,3.3,2.2,6.8,2.2c1.1,0,1.9-0.9,1.9-1.9v-5.7h76.7V90c0,1.1,0.9,1.9,1.9,1.9c3.4,0,5.3-1.2,6.8-2.2
			c1.3-0.9,2.4-1.6,4.7-1.6s3.3,0.7,4.7,1.6c1.5,1,3.3,2.2,6.8,2.2c1.1,0,1.9-0.9,1.9-1.9V1.9C130,0.9,129.1,0,128.1,0z M89.7,3.8
			h36.4c-1,10.7-9.9,19-20.9,19c-7.4,0-14.2-3.9-18-10.2C88.6,10,89.4,7,89.7,3.8z M85.9,3.8c-1,10.7-9.9,19-20.9,19
			s-19.9-8.4-20.9-19H85.9z M40.3,3.8c0.2,3.2,1.1,6.2,2.4,8.9c-3.8,6.3-10.6,10.2-18,10.2c-10.9,0-19.9-8.4-20.9-19H40.3z
			 M126.2,87.9c-1.1-0.3-1.9-0.8-2.8-1.4c-1.5-1-3.3-2.2-6.8-2.2s-5.3,1.2-6.8,2.2c-0.9,0.6-1.7,1.1-2.8,1.4V32.4
			c0-1.1-0.9-1.9-1.9-1.9s-1.9,0.9-1.9,1.9v48.1H26.7V32.4c0-1.1-0.9-1.9-1.9-1.9s-1.9,0.9-1.9,1.9v55.5c-1.1-0.3-1.9-0.8-2.8-1.4
			c-1.5-1-3.3-2.2-6.8-2.2S8,85.5,6.6,86.5c-0.9,0.6-1.7,1.1-2.8,1.4V15.1c4.4,7,12.1,11.6,20.9,11.6c8.1,0,15.5-3.9,20.1-10.3
			c4.5,6.3,11.8,10.3,20.1,10.3s15.6-4.1,20.1-10.3c4.6,6.4,12.1,10.3,20.1,10.3c8.8,0,16.6-4.6,20.9-11.6V87.9z"/>
	</g>
</g>
</svg>
